<?xml version="1.0" standalone="no"?>
<!DOCTYPE svg PUBLIC "-//W3C//DTD SVG 20010904//EN"
 "http://www.w3.org/TR/2001/REC-SVG-20010904/DTD/svg10.dtd">
<svg version="1.0" xmlns="http://www.w3.org/2000/svg"
 width="200.000000pt" height="200.000000pt" viewBox="0 0 200.000000 200.000000"
 preserveAspectRatio="xMidYMid meet">

<g transform="translate(0.000000,200.000000) scale(0.100000,-0.100000)"
fill="#000000" stroke="none">
<path d="M0 1974 c0 -23 2 -25 15 -14 25 21 52 -11 47 -55 -3 -29 -1 -35 14
-35 13 0 27 18 44 53 22 45 29 52 52 49 15 -1 29 2 33 8 4 7 12 7 25 0 14 -7
25 -7 39 2 17 10 24 9 44 -10 27 -26 47 -28 47 -7 0 9 10 20 23 25 14 6 -49 9
-180 9 l-203 1 0 -26z"/>
<path d="M417 1994 c-11 -11 3 -24 26 -24 22 -1 22 -1 3 -15 -11 -8 -30 -15
-42 -15 -13 0 -26 -4 -29 -10 -10 -16 -40 -11 -69 11 -21 17 -29 19 -41 9 -8
-7 -15 -21 -15 -31 0 -26 -17 -32 -23 -9 -7 27 -25 25 -39 -5 -12 -27 -28 -24
-28 6 0 29 -27 23 -39 -8 -15 -40 -35 -62 -59 -66 -12 -2 -30 -11 -42 -22 -19
-17 -20 -29 -20 -250 0 -206 2 -238 19 -275 17 -38 20 -40 35 -25 9 9 16 30
16 46 0 19 5 29 15 29 9 0 15 -9 15 -25 0 -18 5 -25 20 -25 22 0 40 28 40 64
0 35 15 40 43 14 36 -33 42 -61 16 -84 l-21 -19 6 32 c10 44 -8 50 -35 11 -33
-48 -49 -60 -66 -46 -11 9 -20 5 -42 -16 -19 -18 -33 -24 -46 -20 -16 6 -17 3
-11 -22 3 -16 9 -89 13 -161 3 -73 9 -133 13 -133 4 0 11 19 16 42 5 23 15 43
23 46 11 4 13 -5 7 -47 -6 -43 -4 -51 10 -51 23 0 53 41 54 73 0 35 23 32 28
-4 2 -13 9 -30 14 -37 15 -18 2 -27 -17 -12 -12 10 -20 7 -45 -20 -27 -29 -34
-32 -55 -22 -31 14 -41 1 -47 -65 -6 -62 5 -67 47 -23 30 32 56 38 72 18 17
-21 22 -58 13 -86 -5 -15 -11 -47 -15 -72 l-6 -45 44 43 c61 60 81 55 85 -22
l3 -58 64 61 c35 34 68 61 73 61 25 0 34 -31 27 -99 -8 -81 3 -111 41 -111 42
0 131 67 180 136 52 72 107 124 132 124 10 0 27 -7 38 -15 10 -8 27 -15 37
-15 28 0 30 -25 8 -85 -26 -68 -26 -77 -3 -105 16 -20 21 -21 40 -9 40 25 75
85 69 117 -9 45 2 68 39 86 44 21 103 21 133 0 25 -18 25 -32 0 -126 -7 -27
-9 -51 -5 -55 11 -11 93 76 121 129 24 46 56 74 69 61 11 -11 6 -58 -9 -77
-32 -42 -5 -96 46 -96 51 0 64 10 83 63 50 144 162 207 182 102 7 -40 -11 -75
-57 -113 -36 -29 -37 -50 -4 -58 45 -11 107 6 215 59 58 28 108 53 113 55 4 2
7 -5 7 -15 0 -25 -161 -118 -239 -139 -74 -19 -151 -18 -180 2 -19 14 -29 15
-61 5 -63 -19 -144 -14 -165 9 -24 26 -27 26 -81 -15 -46 -36 -87 -45 -100
-23 -11 17 -6 70 11 119 9 26 12 46 6 52 -20 20 -46 -1 -80 -67 -26 -50 -49
-78 -82 -101 -69 -49 -82 -51 -119 -13 l-32 32 -39 -22 c-47 -27 -90 -28 -114
-2 -10 11 -21 20 -26 20 -4 0 -31 -18 -60 -40 -64 -48 -90 -56 -127 -41 -38
16 -55 65 -47 139 l6 57 -38 -45 c-59 -69 -103 -110 -119 -110 -20 0 -33 40
-23 68 12 32 11 75 -1 67 -14 -9 -87 -120 -95 -144 -7 -25 -41 -45 -56 -35
-16 10 -3 89 31 195 35 106 37 129 12 129 -28 0 -60 -40 -71 -90 -6 -26 -11
-175 -11 -347 l0 -303 1000 0 1000 0 0 56 0 56 -62 -6 c-164 -17 -203 -18
-256 -5 -48 11 -60 11 -104 -5 -28 -10 -74 -20 -102 -23 -48 -5 -55 -3 -88 26
-20 17 -41 31 -47 31 -6 0 -42 -17 -81 -37 -60 -32 -72 -35 -94 -25 -22 10
-26 18 -26 52 0 23 9 58 20 80 11 21 16 41 11 44 -4 3 -28 0 -51 -7 -37 -11
-45 -18 -57 -52 -21 -63 -123 -145 -179 -145 -24 0 -40 9 -63 36 l-32 35 -35
-30 c-19 -17 -46 -34 -59 -37 -29 -7 -75 18 -75 41 0 24 -21 28 -43 7 -12 -10
-43 -31 -68 -46 -108 -62 -200 -11 -199 111 1 57 20 96 78 157 35 37 51 46 78
46 23 0 37 -6 44 -19 25 -48 -3 -97 -35 -61 -26 29 -39 25 -79 -22 -50 -58
-50 -104 -1 -147 45 -39 65 -39 140 2 50 27 64 42 85 85 33 65 69 104 94 100
31 -5 29 -19 -9 -78 -57 -87 -37 -132 41 -95 26 12 42 31 60 70 23 49 56 77
71 61 3 -3 -1 -27 -9 -53 -17 -54 -14 -79 14 -94 39 -21 91 9 122 68 9 18 16
35 16 38 -1 21 3 26 23 39 12 8 57 24 101 36 60 16 81 18 92 9 19 -16 17 -36
-7 -70 -11 -16 -23 -45 -26 -64 -5 -33 -4 -35 21 -35 27 0 117 54 125 74 10
24 61 66 81 66 24 0 24 -5 -2 -68 -12 -31 -11 -35 11 -53 51 -41 181 -15 181
37 0 34 79 117 126 132 44 13 82 -1 90 -35 7 -27 -11 -58 -58 -102 l-33 -31
25 -1 c65 -4 197 4 213 12 16 9 17 35 17 320 0 188 -4 318 -10 329 -7 13 -7
21 0 25 5 3 10 42 10 87 0 72 -2 79 -17 73 -41 -17 -63 -16 -92 4 -42 30 -58
68 -56 132 2 66 8 88 46 164 27 55 29 64 20 111 -5 28 -11 55 -12 60 -6 21 12
128 27 156 13 26 18 28 29 17 13 -13 19 -38 16 -68 -1 -11 -4 -11 -17 0 -23
19 -35 -5 -32 -69 4 -64 21 -73 29 -15 3 24 8 45 12 49 13 13 19 -48 7 -74
-31 -67 -15 -172 25 -172 13 0 15 37 15 261 l0 260 -22 -7 c-13 -4 -32 -7 -43
-6 -11 1 -29 -7 -40 -17 -25 -23 -61 -35 -98 -33 -15 1 -45 -7 -67 -18 -47
-24 -63 -25 -80 -5 -17 20 -5 73 24 110 29 36 47 26 23 -14 -19 -32 -23 -71
-7 -71 26 0 70 32 70 51 0 48 63 118 96 105 20 -8 17 -33 -7 -73 -25 -40 -22
-47 11 -30 14 7 27 24 30 42 18 87 89 118 76 33 -6 -35 -4 -39 10 -34 8 3 18
6 20 6 2 0 4 34 4 75 l0 75 -60 0 c-52 0 -64 -4 -93 -30 -19 -16 -40 -30 -46
-30 -19 0 -12 28 11 44 20 15 -42 16 -683 16 -388 0 -709 -3 -712 -6z m778
-44 c8 0 17 5 20 10 3 6 13 10 22 10 29 0 -6 -29 -44 -36 -40 -8 -70 13 -59
42 6 16 8 15 27 -4 11 -12 26 -22 34 -22z m-455 -19 c0 -50 15 -59 47 -30 l25
24 24 -28 c28 -33 30 -64 6 -93 -37 -46 -83 -37 -100 18 -14 44 -21 148 -10
148 4 0 8 -18 8 -39z m327 22 c2 -6 -17 -14 -44 -18 -26 -4 -56 -11 -65 -16
-10 -5 -18 -6 -18 -1 0 17 25 32 56 32 18 0 36 5 39 11 8 12 27 7 32 -8z m391
5 c29 -29 -1 -139 -63 -230 -20 -28 -33 -53 -30 -56 13 -13 62 39 90 94 35 67
65 84 65 36 0 -16 -7 -35 -15 -42 -21 -17 -19 -30 4 -30 21 0 62 44 87 91 16
31 44 39 44 13 0 -20 -41 -94 -51 -94 -10 0 -93 -174 -103 -213 -6 -26 -5 -28
14 -22 13 4 20 2 20 -6 0 -19 -31 -49 -52 -49 -28 0 -23 53 12 135 36 86 37
91 3 98 -21 4 -36 -3 -67 -29 -23 -20 -50 -34 -66 -34 -15 0 -36 -11 -50 -25
-40 -43 -57 -25 -20 22 11 14 20 40 20 57 0 75 44 194 96 264 27 34 43 39 62
20z m-408 -92 c-19 -7 -39 -10 -45 -7 -11 6 29 19 60 19 11 1 5 -5 -15 -12z
m-467 -56 c7 0 17 4 23 9 16 15 66 23 62 10 -4 -13 -8 -15 -61 -40 -24 -11
-27 -17 -22 -41 8 -34 -7 -37 -29 -4 -11 18 -21 23 -38 19 l-23 -6 23 25 c12
13 22 36 22 49 0 39 14 44 23 10 4 -17 13 -31 20 -31z m392 30 c-3 -5 -13 -10
-21 -10 -8 0 -14 5 -14 10 0 6 9 10 21 10 11 0 17 -4 14 -10z m-709 -78 c12
-9 24 -25 27 -34 7 -21 56 -25 75 -6 6 6 15 8 19 4 16 -16 -39 -46 -82 -46
-35 0 -46 -5 -59 -25 -18 -27 -45 -32 -64 -13 -20 20 -15 89 10 115 26 27 45
29 74 5z m733 -87 c0 -36 6 -75 12 -87 13 -24 13 -24 53 36 16 25 36 13 36
-21 0 -17 -4 -23 -14 -20 -11 5 -11 0 1 -25 16 -30 25 -32 78 -13 l20 7 -20
-17 c-15 -13 -33 -15 -72 -12 -67 7 -92 21 -100 58 -6 34 -26 34 -31 0 -5 -29
-54 -113 -70 -119 -8 -2 -12 7 -12 27 0 22 4 29 14 25 17 -6 51 40 41 56 -10
17 -21 12 -35 -17 -7 -16 -14 -23 -17 -17 -5 15 36 84 49 84 20 0 37 35 38 78
0 29 4 42 14 42 11 0 14 -16 15 -65z m-469 -75 c0 -5 -13 -16 -30 -25 -27 -14
-30 -14 -30 0 0 9 10 20 23 25 30 12 37 12 37 0z m-215 -121 c26 -4 31 -7 14
-8 -47 -2 -62 -22 -57 -77 3 -27 8 -57 12 -66 6 -13 4 -18 -8 -18 -13 0 -16
12 -16 70 0 56 -3 70 -15 70 -8 0 -15 4 -15 9 0 5 7 14 15 21 8 7 15 22 16 34
1 18 2 18 8 -4 5 -20 15 -26 46 -31z m371 26 c1 -11 2 -26 3 -33 1 -10 6 -10
21 -2 13 7 20 7 20 0 0 -8 -62 -40 -79 -40 -3 0 -11 12 -18 26 -10 21 -9 30 4
50 18 29 47 28 49 -1z m1134 10 c-1 -6 -27 -18 -58 -27 -107 -31 -121 -40
-128 -74 -3 -18 -3 -42 1 -54 7 -22 22 -23 70 -5 19 7 19 7 3 -10 -9 -10 -32
-18 -55 -19 -32 -1 -38 2 -41 22 -5 31 -17 27 -41 -13 -24 -42 -46 -53 -73
-36 -17 11 -24 9 -47 -13 -20 -19 -36 -25 -63 -24 -35 1 -37 3 -31 30 5 24 2
30 -16 35 -25 6 -27 16 -5 34 10 8 18 9 22 2 4 -5 14 -12 22 -15 8 -2 15 -15
15 -29 0 -17 6 -25 22 -27 17 -3 28 6 44 32 23 40 39 46 39 17 0 -17 36 -40
44 -29 8 10 46 99 46 107 0 5 -6 11 -12 14 -7 2 2 11 20 21 19 10 32 24 32 36
0 23 15 27 24 5 7 -20 18 -19 69 4 66 30 100 35 97 16z m-1270 -54 c0 -37 22
-55 57 -47 l28 7 -25 -21 c-33 -26 -45 -25 -68 6 l-19 27 -28 -37 c-33 -43
-42 -45 -55 -10 -13 32 -31 27 -44 -14 -17 -49 -39 -67 -64 -51 -27 17 -27 71
0 95 16 15 22 16 39 6 18 -11 23 -10 40 13 19 23 47 27 33 4 -6 -11 13 -39 27
-39 5 0 18 20 30 45 24 52 49 60 49 16z m638 -18 c2 -24 -1 -32 -17 -36 -13
-3 -21 -13 -21 -27 0 -17 4 -20 19 -15 18 5 19 3 9 -32 -5 -21 -15 -46 -20
-56 -15 -28 -1 -67 23 -67 11 0 17 -4 14 -10 -10 -17 -54 -11 -64 8 -6 10 -8
32 -7 48 2 16 7 58 11 94 12 112 45 171 53 93z m90 -4 c7 -12 11 -23 8 -26 -8
-9 -36 17 -36 33 0 20 13 17 28 -7z m-298 -38 c-8 -4 -58 -23 -110 -40 -221
-75 -251 -97 -252 -182 0 -86 -31 -161 -58 -144 -14 9 -30 48 -41 100 -4 22
-11 53 -15 69 -5 20 -4 27 4 22 11 -6 31 -64 39 -111 6 -35 12 -45 28 -45 16
0 21 43 16 129 -1 30 3 49 16 63 19 21 91 56 183 89 30 11 63 24 72 30 10 5
27 9 37 9 11 0 23 5 26 10 3 6 21 10 38 10 22 -1 28 -3 17 -9z m332 -116 c-3
-29 -1 -35 14 -35 17 0 17 -1 2 -17 -34 -33 -63 23 -36 67 19 29 25 25 20 -15z
m-562 -66 c0 -10 -12 -44 -26 -74 -38 -79 -23 -86 60 -30 37 25 77 45 89 45
20 0 20 0 1 -15 -10 -8 -23 -15 -28 -15 -5 0 -32 -16 -60 -34 -100 -68 -137
-56 -91 30 23 43 24 50 10 60 -19 14 -19 28 0 48 19 19 45 10 45 -15z m-394
-185 c-3 -7 5 -20 17 -29 16 -11 19 -17 9 -27 -9 -9 -17 -7 -35 10 -13 12 -26
22 -29 22 -4 0 -16 -16 -28 -35 -17 -27 -28 -35 -51 -35 -27 0 -30 3 -23 23 4
12 8 32 8 45 1 30 20 29 24 -3 2 -14 8 -25 14 -25 15 0 48 30 48 43 0 13 33
36 43 30 5 -3 6 -11 3 -19z m94 -10 c-8 -8 -23 -20 -34 -26 -19 -10 -18 -8 3
16 26 27 53 37 31 10z m1018 -132 c3 -16 -7 -26 -38 -42 -49 -25 -70 -21 -70
14 0 28 9 36 54 47 41 9 50 6 54 -19z m52 -501 c0 -37 -22 -57 -40 -36 -10 12
-10 21 -2 40 16 35 42 32 42 -4z"/>
<path d="M781 1866 c-20 -24 -9 -51 19 -51 21 0 25 5 25 30 0 34 -24 45 -44
21z"/>
<path d="M1394 1878 c-24 -47 -64 -161 -59 -167 10 -10 64 65 71 97 3 18 10
35 15 38 12 7 11 64 -1 64 -5 0 -17 -14 -26 -32z"/>
<path d="M196 1728 c-9 -12 -16 -28 -16 -34 0 -17 25 -35 41 -29 15 6 39 50
39 72 0 22 -48 15 -64 -9z"/>
<path d="M335 1379 c-9 -28 9 -46 30 -29 8 7 15 21 15 31 0 26 -37 25 -45 -2z"/>
<path d="M7 1923 c-4 -3 -7 -20 -7 -36 0 -25 2 -28 15 -17 8 7 15 23 15 36 0
23 -10 31 -23 17z"/>
<path d="M1904 1298 c-37 -59 -46 -88 -47 -154 -1 -67 0 -73 28 -97 32 -28 83
-35 103 -15 18 18 15 33 -18 68 -30 33 -32 39 -34 144 -1 58 -15 81 -32 54z"/>
<path d="M1950 1187 c0 -18 28 -42 37 -33 9 8 -9 38 -25 44 -7 2 -12 -3 -12
-11z"/>
</g>
</svg>
