<?xml version="1.0" standalone="no"?>
<!DOCTYPE svg PUBLIC "-//W3C//DTD SVG 20010904//EN"
 "http://www.w3.org/TR/2001/REC-SVG-20010904/DTD/svg10.dtd">
<svg version="1.0" xmlns="http://www.w3.org/2000/svg"
 width="326.000000pt" height="326.000000pt" viewBox="0 0 326.000000 326.000000"
 preserveAspectRatio="xMidYMid meet">

<g transform="translate(0.000000,326.000000) scale(0.100000,-0.100000)"
fill="#000000" stroke="none">
<path d="M1450 3250 c-190 -24 -352 -71 -518 -150 -473 -226 -799 -649 -904
-1172 -32 -162 -32 -434 0 -596 92 -460 356 -845 744 -1086 38 -23 56 -31 45
-18 -36 40 25 42 73 1 23 -19 23 -22 7 -34 -15 -11 -7 -17 64 -49 211 -97 411
-140 649 -140 163 0 220 6 220 24 0 16 -84 33 -154 30 -21 0 -49 6 -62 15 -35
22 -32 106 4 155 49 65 67 76 122 78 27 0 50 -3 50 -7 0 -5 18 -5 40 -1 30 6
40 4 40 -6 0 -11 6 -11 27 -3 21 8 30 7 38 -4 10 -14 84 -30 145 -31 19 0 39
-5 43 -11 6 -7 10 -6 13 2 3 7 12 9 20 6 8 -3 14 0 14 7 0 6 5 8 10 5 6 -3 10
1 10 9 0 11 -10 16 -30 17 -16 1 -34 3 -40 4 -5 1 -22 3 -37 5 -16 1 51 15
147 30 96 16 208 34 249 41 l73 12 -5 40 c-3 22 -12 44 -20 48 -12 7 -14 38
-11 176 4 167 3 167 -10 98 -8 -38 -18 -114 -22 -168 -4 -53 -12 -105 -19
-114 -9 -12 -35 -17 -113 -21 l-100 -5 -65 37 c-95 53 -115 50 -192 -30 -35
-36 -68 -63 -74 -59 -8 4 -7 12 1 27 34 54 38 66 38 105 0 30 9 57 30 90 17
26 30 60 30 76 0 50 -39 102 -69 91 -8 -2 -17 0 -21 5 -3 6 -43 -26 -88 -70
-54 -53 -101 -88 -136 -104 l-54 -24 -51 27 c-47 25 -51 30 -51 64 0 20 5 49
12 65 6 15 10 36 9 45 -1 12 8 19 33 24 26 4 36 11 36 25 0 46 44 106 82 112
13 2 39 19 59 38 31 30 35 38 31 77 -2 23 -7 42 -11 41 -15 -1 -45 -18 -33
-18 6 -1 12 -10 12 -20 0 -11 5 -21 12 -23 6 -2 8 -10 4 -17 -5 -7 -15 -10
-23 -7 -10 4 -13 2 -10 -8 3 -8 0 -13 -8 -12 -18 3 -32 16 -17 16 6 0 9 7 6
15 -4 8 -10 12 -16 9 -5 -3 -20 -3 -34 0 -21 6 -24 12 -24 51 0 40 -2 44 -17
36 -10 -6 -35 -18 -55 -27 -40 -17 -49 -45 -28 -84 7 -13 6 -21 -5 -30 -30
-25 -59 -85 -61 -128 -2 -25 -10 -52 -19 -61 -15 -15 -17 -14 -27 3 -5 10 -19
25 -30 35 -79 64 -139 153 -254 374 l-57 108 -24 -16 c-20 -13 -27 -14 -39 -4
-13 10 -17 10 -24 -1 -7 -11 -14 -12 -35 -2 -35 16 -40 15 -24 -5 13 -15 12
-15 -8 -5 -29 16 -40 15 -40 -4 0 -9 11 -21 25 -27 24 -11 24 -12 -19 -22
l-44 -11 40 -27 c44 -30 41 -36 -6 -12 -36 19 -45 14 -54 -26 -5 -23 -11 -29
-23 -24 -69 28 -73 28 -90 4 -9 -12 -28 -46 -42 -73 -50 -98 -82 -146 -97
-146 -22 0 -137 30 -145 38 -8 8 131 243 163 278 10 11 19 23 19 27 0 3 23 36
50 72 28 36 50 72 50 78 0 15 33 81 50 102 7 8 17 31 24 52 27 89 100 206 182
293 70 73 96 93 176 132 89 44 97 46 181 47 77 1 92 4 116 23 l27 23 -22 70
c-12 39 -25 93 -29 120 -4 28 -13 53 -18 57 -10 6 -29 126 -27 168 0 8 1 46 3
83 1 37 7 71 13 75 7 4 13 46 16 99 4 88 5 93 42 137 42 52 55 55 96 24 25
-18 48 -22 147 -28 125 -6 165 -19 193 -61 8 -12 26 -35 39 -51 17 -21 20 -32
12 -41 -7 -9 -7 -17 0 -24 7 -7 5 -14 -6 -23 -18 -15 -20 -39 -2 -46 15 -5 11
-60 -5 -70 -5 -4 -27 -6 -48 -6 -28 1 -49 -7 -75 -28 -20 -16 -40 -30 -45 -32
-5 -2 -11 -25 -15 -53 -3 -27 -12 -60 -21 -73 -11 -16 -13 -35 -9 -66 5 -28 3
-46 -4 -50 -17 -11 -13 -29 5 -22 10 4 18 -3 25 -24 6 -16 18 -31 27 -33 31
-8 -162 -14 -203 -6 -11 2 -21 -2 -22 -11 -3 -12 5 -15 37 -12 24 3 54 -2 74
-12 19 -9 46 -16 60 -16 14 0 26 -4 26 -9 0 -5 18 -12 40 -16 36 -6 44 -4 66
20 14 15 31 25 38 22 7 -3 19 -1 27 3 11 7 10 12 -5 28 -9 11 -27 23 -39 26
-33 8 -49 40 -36 69 8 18 8 30 -2 48 -7 13 -13 44 -14 69 -1 25 -5 53 -10 64
-7 15 -5 17 13 12 17 -6 21 -4 16 7 -9 24 17 32 33 11 7 -10 12 -23 10 -29 -4
-12 77 -45 110 -45 33 0 45 -31 33 -82 -6 -24 -13 -54 -16 -68 -3 -13 -10 -30
-16 -38 -6 -7 -13 -30 -15 -50 -2 -20 -8 -41 -14 -47 -5 -5 -9 -18 -9 -28 0
-20 -19 -20 -64 -2 -15 6 -17 5 -11 -5 5 -8 1 -18 -11 -27 -15 -11 -16 -15 -5
-22 9 -6 10 -10 2 -16 -7 -4 -18 -1 -26 5 -19 16 -51 4 -74 -28 -20 -29 -38
-31 -163 -18 -44 5 -46 -1 -17 -38 33 -42 110 -76 170 -76 85 0 180 20 246 52
87 43 97 36 91 -54 l-6 -72 20 49 c24 64 48 175 48 226 0 21 3 39 6 39 17 0
48 -26 74 -62 l30 -41 0 -151 c-1 -103 -7 -183 -20 -251 -10 -55 -16 -102 -14
-104 2 -2 11 12 19 32 21 51 30 145 30 335 l0 162 45 2 c68 2 76 0 113 -25 20
-13 66 -37 104 -52 37 -16 122 -66 188 -111 214 -147 260 -215 299 -444 9 -52
21 -117 27 -145 5 -27 12 -77 14 -110 2 -33 7 -85 12 -115 l8 -55 33 82 c39
101 66 200 88 323 23 129 23 391 0 520 -124 700 -640 1220 -1333 1345 -108 19
-351 27 -453 15z m561 -579 c-7 -5 -11 -13 -7 -19 3 -6 2 -13 -4 -17 -5 -3
-10 2 -10 13 0 21 8 32 24 32 6 0 5 -4 -3 -9z m-971 -2013 c0 -19 -2 -20 -10
-8 -13 19 -13 30 0 30 6 0 10 -10 10 -22z m-84 -11 l52 -12 -17 -35 c-18 -38
-28 -40 -118 -25 -39 7 -43 6 -43 -13 0 -27 8 -31 67 -38 95 -11 94 -10 78
-47 -13 -31 -15 -32 -65 -29 -30 3 -69 14 -95 29 -42 23 -45 27 -45 66 0 34 7
49 35 80 38 41 61 45 151 24z m459 -166 c-9 -8 -23 13 -33 51 -15 55 -1 56 20
1 9 -26 15 -49 13 -52z m-509 -97 c35 -4 41 -8 37 -24 -8 -30 -33 -47 -43 -29
-7 11 -12 11 -22 1 -28 -28 -88 0 -88 43 0 22 6 23 116 9z"/>
<path d="M1573 2546 c25 -19 21 -26 -13 -26 -20 0 -30 -5 -30 -15 0 -13 7 -15
35 -9 26 5 35 3 35 -8 0 -16 35 -48 53 -48 8 0 23 11 35 25 l22 25 -35 21
c-19 12 -33 25 -30 29 6 9 -30 20 -65 20 -23 -1 -24 -2 -7 -14z m92 -75 c-3
-6 -11 -11 -17 -11 -6 0 -6 6 2 15 14 17 26 13 15 -4z"/>
<path d="M1700 2200 c0 -5 7 -10 16 -10 8 0 12 5 9 10 -3 6 -10 10 -16 10 -5
0 -9 -4 -9 -10z"/>
<path d="M1715 2100 c11 -5 14 -9 6 -9 -11 -1 -11 -4 -1 -16 16 -20 44 -19 61
2 12 15 12 16 -4 10 -11 -4 -20 -1 -23 8 -4 8 -18 15 -33 14 -23 0 -24 -1 -6
-9z"/>
<path d="M1554 1693 c5 -43 13 -55 78 -118 40 -39 89 -92 108 -117 19 -26 38
-48 43 -48 22 -1 -2 33 -83 115 -83 85 -130 158 -130 201 0 8 -5 14 -11 14 -8
0 -10 -15 -5 -47z"/>
<path d="M2002 1578 c-14 -14 -16 -28 -3 -28 5 0 11 9 14 20 6 23 5 24 -11 8z"/>
<path d="M1980 1445 c-20 -24 -5 -28 21 -6 19 16 20 20 8 21 -9 0 -22 -7 -29
-15z"/>
<path d="M2074 1092 c-22 -15 -22 -50 -1 -73 12 -13 22 -28 22 -34 0 -18 20
-15 20 3 0 9 6 27 13 39 17 31 15 51 -7 63 -23 12 -32 12 -47 2z m33 -44 c-3
-8 -6 -5 -6 6 -1 11 2 17 5 13 3 -3 4 -12 1 -19z"/>
<path d="M2065 958 c0 -38 2 -42 28 -45 22 -3 27 0 27 17 0 14 -6 20 -17 18
-13 -2 -19 5 -21 25 -5 42 -17 32 -17 -15z"/>
<path d="M1718 840 c-4 -47 -10 -94 -13 -105 -5 -15 0 -12 19 10 20 23 26 41
26 76 0 25 -4 49 -9 55 -5 5 -11 18 -13 29 -2 11 -7 -18 -10 -65z"/>
<path d="M1838 893 c-10 -2 -18 -9 -18 -14 0 -14 16 -11 30 6 7 8 11 14 9 14
-2 -1 -12 -3 -21 -6z"/>
<path d="M1848 23 c7 -3 16 -2 19 1 4 3 -2 6 -13 5 -11 0 -14 -3 -6 -6z"/>
</g>
</svg>
