<?xml version="1.0" standalone="no"?>
<!DOCTYPE svg PUBLIC "-//W3C//DTD SVG 20010904//EN"
 "http://www.w3.org/TR/2001/REC-SVG-20010904/DTD/svg10.dtd">
<svg version="1.0" xmlns="http://www.w3.org/2000/svg"
 width="457.000000pt" height="457.000000pt" viewBox="0 0 457.000000 457.000000"
 preserveAspectRatio="xMidYMid meet">

<g transform="translate(0.000000,457.000000) scale(0.100000,-0.100000)"
fill="#000000" stroke="none">
<path d="M2638 3292 c-17 -3 -18 -23 -18 -243 0 -232 1 -239 20 -239 19 0 20
7 20 119 0 117 0 119 26 136 14 9 40 19 58 22 27 4 37 0 54 -22 20 -25 22 -40
22 -141 0 -112 0 -114 23 -114 22 0 23 1 20 125 -1 69 -7 134 -12 144 -6 10
-24 24 -42 31 -31 13 -47 11 -131 -17 -15 -5 -18 6 -20 99 -3 92 -5 103 -20
100z"/>
<path d="M1165 3269 c-50 -12 -65 -31 -65 -85 l0 -43 75 -3 c126 -5 93 -23
-52 -28 -155 -6 -166 -12 -183 -98 -20 -109 23 -202 95 -202 34 0 35 1 35 39
0 102 41 131 188 131 138 0 142 4 142 139 0 79 -3 103 -17 120 -30 37 -129 50
-218 30z m24 -43 c23 -28 -17 -68 -45 -45 -17 14 -18 31 -2 47 16 16 33 15 47
-2z"/>
<path d="M2463 3213 c-8 -3 -13 -23 -13 -49 0 -37 -3 -44 -20 -44 -11 0 -20
-6 -20 -14 0 -7 9 -16 20 -19 19 -5 20 -14 20 -125 0 -130 7 -147 62 -154 34
-4 37 11 6 26 -22 11 -23 17 -26 134 l-3 122 31 0 c20 0 30 5 30 15 0 10 -10
15 -30 15 -29 0 -30 1 -30 50 0 49 -3 53 -27 43z"/>
<path d="M1803 3100 l-43 -19 0 -209 c0 -182 2 -211 16 -216 9 -3 18 -6 20 -6
2 0 4 38 4 83 0 46 2 86 5 89 3 3 25 -2 49 -10 38 -14 47 -14 82 -1 58 22 84
67 84 146 0 69 -17 116 -54 145 -29 24 -109 23 -163 -2z m118 -10 c35 -20 51
-67 47 -143 -3 -61 -7 -72 -31 -93 -32 -28 -54 -30 -102 -10 l-35 15 0 106 0
106 33 14 c39 17 62 18 88 5z"/>
<path d="M2103 3113 c-20 -8 -18 -242 2 -270 25 -35 80 -47 143 -30 l52 14 0
-44 c0 -36 -6 -50 -29 -74 -16 -16 -40 -29 -53 -29 -13 0 -30 -4 -38 -10 -26
-16 17 -24 63 -10 48 14 75 35 88 67 4 12 9 105 10 205 1 178 0 183 -20 186
-20 3 -21 -2 -23 -130 l-3 -133 -41 -14 c-34 -12 -47 -12 -71 -2 -44 18 -53
48 -53 171 0 61 -3 110 -7 109 -5 0 -14 -3 -20 -6z"/>
<path d="M2970 3082 c-29 -28 -40 -49 -45 -83 -19 -127 67 -218 176 -189 56
15 92 66 97 140 8 106 -45 170 -142 170 -43 0 -53 -4 -86 -38z m150 -18 c23
-22 25 -32 25 -103 0 -70 -3 -82 -24 -105 -26 -27 -67 -34 -101 -16 -30 16
-54 92 -47 151 12 100 83 135 147 73z"/>
<path d="M3303 3100 l-43 -19 0 -136 c0 -128 1 -135 20 -135 18 0 20 8 22 132
l3 132 37 14 c46 18 89 4 107 -34 6 -14 11 -74 11 -134 0 -103 1 -110 20 -110
19 0 20 7 20 134 0 133 0 135 -26 155 -35 27 -113 28 -171 1z"/>
<path d="M10 2093 c0 -58 27 -226 55 -343 78 -322 244 -657 454 -913 316 -387
780 -672 1271 -781 185 -40 282 -50 495 -50 213 0 310 10 495 50 337 75 686
244 953 463 376 307 657 755 772 1231 28 117 55 285 55 343 l0 37 -2275 0
-2275 0 0 -37z m1420 -757 c0 -328 -1 -354 -17 -361 -10 -4 -72 -10 -139 -12
-151 -7 -216 9 -273 66 -98 98 -92 273 13 369 53 49 102 66 189 67 l67 0 0
113 0 112 80 0 80 0 0 -354z m240 279 l0 -75 -75 0 -75 0 0 75 0 75 75 0 75 0
0 -75z m411 -169 c61 -29 64 -39 67 -267 l4 -207 -49 -6 c-88 -12 -237 -10
-275 3 -60 20 -88 62 -88 131 0 97 51 140 195 164 58 10 71 16 73 33 2 11 -4
28 -13 37 -26 25 -76 20 -202 -19 -22 -7 -23 -5 -23 48 0 65 4 68 97 92 70 18
167 14 214 -9z m521 -8 c72 -39 78 -62 78 -285 l0 -193 -75 0 -75 0 0 168 c0
207 -3 214 -88 210 l-57 -3 -3 -188 -2 -188 -78 3 -77 3 -3 232 -2 232 40 11
c133 36 275 35 342 -2z m588 21 c46 -5 87 -12 92 -15 12 -8 -43 -111 -59 -110
-12 1 -15 -33 -16 -209 -2 -230 -9 -269 -59 -330 -50 -60 -98 -78 -218 -83
-70 -2 -118 1 -145 10 l-39 13 -1 63 c0 35 3 66 6 68 4 2 26 -3 50 -12 51 -18
152 -21 191 -5 32 12 55 45 64 89 l6 31 -68 -6 c-82 -6 -141 8 -184 43 -87 74
-101 226 -30 337 44 70 161 119 300 126 14 0 63 -4 110 -10z m465 -17 c120
-62 168 -208 109 -339 -49 -112 -106 -148 -234 -148 -68 0 -93 5 -127 22 -88
47 -128 130 -121 250 7 120 56 189 165 229 52 20 157 13 208 -14z m-1987 -254
l-3 -273 -30 -53 c-27 -50 -97 -112 -124 -112 -6 0 -39 14 -75 32 l-64 31 47
31 c31 21 54 47 71 81 24 49 25 57 28 293 l4 242 74 0 75 0 -3 -272z"/>
<path d="M1143 1320 c-50 -30 -67 -112 -37 -176 21 -43 59 -64 119 -64 l45 0
0 130 0 130 -47 0 c-30 0 -60 -7 -80 -20z"/>
<path d="M1913 1155 c-27 -11 -33 -20 -33 -44 0 -35 22 -51 69 -51 53 0 61 8
61 61 0 49 0 49 -32 49 -18 -1 -48 -7 -65 -15z"/>
<path d="M2960 1322 c-46 -23 -72 -74 -67 -131 8 -78 60 -120 133 -107 l34 7
0 102 c0 56 -3 112 -6 125 -8 27 -44 29 -94 4z"/>
<path d="M3503 1338 c-44 -11 -63 -51 -63 -128 0 -73 18 -113 59 -130 38 -16
78 -3 105 34 27 36 30 149 4 188 -22 33 -63 47 -105 36z"/>
</g>
</svg>
