<svg version="1.0" xmlns="http://www.w3.org/2000/svg" width="544" height="816" viewBox="0 0 408 612"><path d="M225.5 142.7c-1.6.2-6.4 1.5-10.5 2.9-4.1 1.3-8.4 2.5-9.5 2.7-1.1.1-3.1 1-4.5 2-1.3.9-2.8 1.7-3.2 1.7-1 0-3.6 2.2-9.7 8.1-5.7 5.4-9.1 12.1-9 17.5 0 2.1.3 3.2.6 2.4.4-.8 1.2-2 1.9-2.7.7-.7 2.1-2.4 3.1-3.7 1.5-1.8 2.6-2.2 5-1.9 2 .3 3.5 1.2 3.8 2.3.8 2.6 8.5 4 21.3 4.1 8.2 0 11.3.4 14.1 1.9 3.4 1.7 9.9 7 8.6 7-.4 0 .2 1.2 1.3 2.7 1.1 1.6 2.1 3.2 2.3 3.8.2.5.9.9 1.6.7.7-.2 1.3.1 1.3.5-.1 1.5-2.7 4.3-4.1 4.4-.8 0-.4.5.9 1.1 2.5 1.3 2.7 2.1 1 4-1.5 1.6-1.5 3.3 0 7.1 2.5 6.1 1.1 7.7-7 7.7-4.3 0-8.8 1.8-8.8 3.5 0 .7-1.6 2-3.5 2.9-2.3 1.1-3.5 2.4-3.6 3.9-.4 4.8-.6 6.3-1.3 9.4-.5 1.8-1.5 3.8-2.2 4.4-1.6 1.3-1.8 5.7-.4 9.4.8 2 .6 2.9-1 4.5-2.7 2.7-2.6 4.4.4 3.6 1.7-.4 2.6-.1 3 1 1 2.6.7 4.6-.6 3.8-.6-.4-.8-.3-.4.4.3.6 2.1 1.4 3.9 1.8 2.4.7.5 1-8.3 1.5s-12.1.3-14.2-.7c-3.2-1.6-5.8-.9-5.8 1.6 0 1.6.6 1.8 5.3 1.3 4.2-.4 6.2-.1 9.5 1.6 2.3 1.1 5.7 2.1 7.7 2.1 1.9 0 3.5.4 3.5 1s-1.8.7-4.5.3c-4.3-.5-6.1.6-3.5 2.2.6.4.8 1 .6 1.4-.3.4.5 1.3 1.8 2 1.8 1 3.3.9 8.4-.8 3.4-1.2 6.7-2.1 7.3-2.1.6 0 2.6-1.6 4.4-3.6 2.6-2.8 3.4-3.2 3.9-1.9.5 1.4.8 1.4 2.8-.4l2.2-2.1-2.9-3c-1.5-1.6-3.1-2.7-3.5-2.5-.5.3-1.9-.4-3.1-1.4-2-1.6-2.4-2.7-2.2-7.2.2-3.8-.2-5.8-1.4-7.2-1.3-1.3-1.4-2.3-.7-3.5 1-1.6.6-5.3-1.1-11.6-.8-2.8-.7-2.8 2.6-2.1 3.1.7 3.3.6 1.9-1-1.3-1.5-1.2-1.9.5-3.2 1.8-1.2 2-1.2 2.4.4.2 1 .8 2.4 1.3 3 .8 1 .6 1.3-.6 1.3-3.3 0-1.4 2 2.9 3.1 2.5.6 4.5 1.5 4.5 2s.7.9 1.5.9 1.5.4 1.5.8 1.6.7 3.5.7c2.3-.1 3.5.3 3.5 1.2 0 .8.6 1.6 1.4 1.9 1.1.4 1.2 1.2.6 2.7-1 2.5-2.4 9.8-2.2 11 .3 1.3-2.8 6.7-3.8 6.7-.6 0-.8 1.1-.4 2.7.7 2.5.6 2.7-1 1.4-1.5-1.3-1.6-1.2-.6 1.3.7 1.9.6 4-.2 7-.9 3.5-1.6 4.3-3.5 4.3-1.2 0-2-.3-1.8-.7.3-.5-.5-.6-1.7-.2-1.3.3-1.9.1-1.5-.5.5-.7 0-.9-1.3-.6-1.1.3-2 1.4-2 2.4 0 1.3-.5 1.7-1.6 1.2-1.3-.5-1.5-.2-.9 1.8.4 1.3 1.2 2.7 1.7 3 .7.4.6.9 0 1.3-.6.3-1.7-.1-2.6-1-1-.9-2.4-1.3-3.6-.9-1.1.3-2 .2-2-.3 0-.6-.7-1.3-1.6-1.6-.8-.3-1.2-.2-.9.4.9 1.4-2.3 7.7-4.3 8.6-3.1 1.3-11.9 1.3-15.7 0-5-1.8-7.8-1-6.9 1.8 1 3.4 4.5 6.6 10.8 9.8 7 3.5 13.3 4.1 24.1 2.1 3.9-.7 8.3-1.3 9.8-1.3s6.5-1.8 11-4c10.3-4.9 11.1-4.4 10.9 6.1-.1 3.9-.4 8.1-.8 9.3-1.5 4.9.6.5 3.1-6.4 4.2-11.9 6.7-24.7 6-31-.8-6.8-.8-17.1 0-22.8.6-3.8.8-4.1 2.6-3.1 3.2 1.7 6.4-1.1 8.3-7.3 3.8-12.9 4.6-16.5 4.6-20.9 0-6.2-1.2-9.1-4.3-10.8l-2.5-1.4-.4-17.6-.3-17.6-3.4-7.3c-3.6-7.6-8.8-13-16.1-16.7-1.9-1-4.8-2.9-6.5-4.2-3.3-2.7-18.8-8.4-22-8.2-1.1.1-3.3.4-5 .6zm16.1 89.1c-1.7 1.6-1.8 1.6-.5-.5.7-1.2 1.5-2 1.8-1.7.3.2-.3 1.2-1.3 2.2zm-19.6 47c0 .5-1.3.7-3 .4-1.6-.2-3-.6-3-.8 0-.2 1.4-.4 3-.4 1.7 0 3 .4 3 .8z"/><path d="M191.5 220c.3.5 2 1.4 3.8 1.9l3.2.9-3.7.1c-4.6.1-10.2 2.2-7.5 2.8.9.3 1.5.9 1.2 1.4-.4.5.5.5 2-.1 3.5-1.3 5.5-1.3 5.5.2 0 1.8 5.8 7.8 7.4 7.8.8 0 1.6-.7 2-1.5.3-.8 1.3-1.5 2.2-1.5 1 0 1.4-.5 1-1.6-.3-.8-.2-1.2.4-.9.6.3 1-.1 1-1 0-.8-2-2.5-4.5-3.7-3.1-1.5-4.2-2.5-3.5-3.3.6-.7.7-1.5.3-1.8-1.1-1.1-11.5-.8-10.8.3zm14.3 9.2c.8 1 .4 1.3-1.3 1.4-1.6.1-2.2-.2-1.8-1.2.6-1.7 1.7-1.8 3.1-.2zM204 256c0 .5.5 1 1.1 1 .5 0 .7-.5.4-1-.3-.6-.8-1-1.1-1-.2 0-.4.4-.4 1zM209.1 264.3c-.9 1.2-.7 1.6 1.1 2 2.9.8 3.6 0 1.7-1.9-1.4-1.3-1.7-1.3-2.8-.1zM283.1 289c2 3.8 2.1 5.2 1.6 23.3-.4 17.5-2.3 32.2-5.3 41.9-.3 1-.1 1.8.3 1.8 1.6 0 5.6-11.2 5.9-16.4.1-2.8.5-13.7.9-24.1.4-10.5 1.1-19.7 1.6-20.7.9-1.7-1.3-7.3-2.4-6.2-.3.3-1-.4-1.7-1.5-.6-1.2-1.5-2.1-2-2.1s0 1.8 1.1 4zM190.3 329.2l.7 6.3 8.8 8.5c4.8 4.7 11.2 11.6 14.1 15.3 3.4 4.3 5.7 6.5 6.3 5.9 1.5-1.5-1.4-5.2-10.3-13.3-9.4-8.4-14-14.9-16.6-23-1-3.2-2.2-5.9-2.7-5.9s-.6 2.8-.3 6.2zM171.5 339.1c-.4.6-.5 1.2-.2 1.5.2.3.7-.2 1-1.1.7-1.7.1-2-.8-.4zM248.1 343.6c-2.4 3-2.7 4.4-.8 4.4.6 0 1.7-1.6 2.3-3.5.6-1.9 1-3.5.8-3.5-.1 0-1.2 1.2-2.3 2.6zM244.7 361.5c-1 1.4-1.4 2.5-.8 2.5 2 0 4.2-1.3 5.2-3.1 1.5-3-2.2-2.4-4.4.6zM124.3 379.7c-.7.3-1.3 1.1-1.3 1.9 0 1.8-1 1.8-3.8-.2-1.2-.8-3-1.4-4-1.2-1.3.3-.7 1 2.3 3.2 4.7 3.3 4 3.1-3.3-.7-3-1.6-5.6-2.6-5.9-2.3-.3.3.1.8.9 1.1 1 .4 1.4 1.4 1.1 2.6-.4 1.2 0 1.9 1 1.9.8 0 2 .6 2.6 1.4.9 1.1.6 1.2-1.4.8-1.5-.2-2.5 0-2.5.7 0 .6-.9 1.1-2.1 1.1-3.3 0-1.7 2.2 4.1 5.7 6.5 4 6.1 4.2-1.4.7-4.7-2.1-5.8-2.3-6.9-1.2-.8.7-1.2 1.9-.9 2.6.2.6-.1 1.2-.7 1.2s-1.1.9-1.1 2c0 2.5.3 2.5-6.1-.5l-5.3-2.4-1.6 2.7c-.9 1.5-3.5 6.1-5.6 10.2-4.6 8.6-6.7 12.3-7.4 13-.3.3-1.1 1.7-1.9 3.2-.8 1.6-2.1 2.8-2.9 2.8-2.1 0-19.6-4.6-32.7-8.5C17.3 415.4 2.1 411 1 411c-1.6 0-1.4 164.6.3 165.7.6.4 2.3.7 3.7.5 1.4-.1 1.9.1 1.3.4-2.1.9-1.5 2.7.7 2.1 1.3-.3 2.1.1 2.5 1.4.4 1 1.1 1.9 1.6 1.9 1.3 0 1.1-1.4-.3-2.8-.9-.9-.8-1.2.4-1.2.9 0 1.8.4 2 1 .1.5 2.1 1.1 4.3 1.2 2.2.2 4.1.9 4.1 1.6.3 2.5.5 2.7 1.4 1.2.8-1.3 1.4-1.3 4.2-.2 1.8.7 5.6 2 8.3 2.9 2.8.9 8.9 3.4 13.6 5.6 7 3.2 8.5 4.4 8.1 5.9-.3 1.2.1 1.8 1.3 1.8 1.1 0 1.5-.5 1.1-1.5-.5-1.3-.2-1.3 1.9.1 1.3.8 2.5 1.5 2.7 1.3.7-.6 10.8 3.3 10.8 4.2 0 .5 1.2.9 2.8.9 1.5 0 5.2 1.3 8.3 3 3.1 1.6 5.9 2.7 6.2 2.3.4-.3 1.3-.1 2.1.6 1 .9 9.1 1.1 29.6 1 25-.1 31.1-.6 24.5-2.2-1.7-.3-1.5-.6 1.2-1.6 1.7-.7 3.4-1.8 3.6-2.5.3-.7 2.6-1.9 5.1-2.6 2.5-.7 4.6-1.6 4.6-2 0-1.6 5.1-4.1 6.3-3.2.7.5 2.6 1.2 4.2 1.6l3 .8-2.3-2.5c-1.5-1.6-2-2.7-1.3-3.2 1.4-.8 3.3.3 2.6 1.6-.4.5.1.9.9.9 1 0 1.3-.6 1-1.5-.4-.8-.1-1.5.5-1.5s.8-.7.4-1.6c-.5-1.4-.2-1.6 2.1-1 3.4.8 5.1-.1 3.5-2-.9-1.1-.3-1.5 3-2 2.3-.4 4.1-1 4.1-1.4 0-.4 2.1-1.3 4.8-2 2.6-.6 5.5-1.8 6.4-2.7.9-.8 3.2-1.6 4.9-1.7 1.8-.1 3.4-.7 3.7-1.4.2-.6 1-1.2 1.8-1.2s1.1.6.8 1.5c-.4 1 .3.7 1.9-.7 1.4-1.3 2.2-2.5 1.7-2.6-1.8-.6-1-2.2 1-2.2 1.1 0 2 .5 2 1.1 0 .6.7.8 1.5.5.9-.3 1.8.1 2.1.9.9 2.1 2 1.8 2-.5 0-1.1-.4-2-.8-2s-.8-.4-.8-.9.8-.7 1.8-.5c1 .3 2.3-.4 3.2-1.5l1.4-2.1 2.2 2.1c2.1 2 2.3 2 5.5.3 1.9-.9 3.8-2.2 4.2-2.8.6-.7.7-.4.3.6-.7 2.4 1.1 3.2 3 1.4 1.8-1.8 3.9-2.1 2.8-.4-.4.6-.3.8.3.5.6-.4 2.4-.4 4-.1 2.4.5 3 1 2.7 3-.1 1.4.3 2.4 1 2.4 2 0 2.7-1.2 1.5-2.7-.9-1-.8-1.3.4-1.3.9 0 1.9.5 2.2 1.1.4.5 1.2.8 1.8.6.7-.2 7.7 1.4 15.7 3.5 8 2.1 21.3 5.6 29.5 7.8 8.3 2.1 27.6 7.3 43 11.5 15.4 4.2 30.7 8.3 33.9 9.1 3.3.8 6.5 1.8 7 2.3.6.5 1.8.9 2.6.9 1.5.1 8.7 1.7 12.3 2.8 1.6.5 1.7-.6 1.7-13.9v-14.5l-5.5-2.3c-3-1.2-5.5-2.6-5.5-3 0-.4 1.3-1.7 2.9-2.8 2.3-1.7 3.2-3.6 5-10.6 1.3-5.1 1.9-9.6 1.5-11.3-1.1-4-4.6-9.1-10.3-14.7-7.9-7.6-8.6-13.2-5-37.2 1.8-11.7 2-16.9 1.6-33.8l-.5-20-2.8-.6c-1.6-.4-5.1-.7-7.9-.7-3.9 0-4.5.2-2.5.8 1.4.4 2.2.8 1.7.9-.4.1 0 1.2.9 2.6 1.5 2.3 1.5 2.5 0 3.1-1.1.4-1.3 1-.8 1.8.8 1 1.1 2.2 1.3 5.8.2 5.6-.9 18.7-1.8 20.3-.6 1.1-1.3 3.7-1.7 5.8-.4 2-1.1 3.7-1.7 3.7-.6 0-.7.5-.4 1 .3.6 0 1.7-.8 2.5-.9.8-1.3 2.4-1 3.6.5 1.7.3 2-.7 1.4-1-.6-1.2-.4-.7.9.5 1.1-.1 2.5-1.7 3.9-2.2 2.1-2.3 2.5-1.1 5.5 1 2.2 1.1 3.3.3 3.8-.6.4-.8.3-.5-.2.3-.6-.9-1-2.8-1-2.3 0-3.5.5-3.8 1.7-.4 1.4 0 1.6 2.4.9 2.2-.7 2.7-.5 2.2.6-.3.8-1 1.1-1.5.8-.6-.4-.5.2.1 1.4.8 1.5.8 2.1 0 2.4-1.7.6-.1 4.8 1.7 4.8.9 0 1.2.5.8 1.1-.3.6 0 1.6.7 2.1 1.1.8 1 .9-.3.4-2-.6-2.3.6-.8 3.4.7 1.4.5 1.9-1 2.3-2.2.6-3.1-1.3-2.5-5.6.2-1.9-.2-3-1.6-3.7-1.2-.7-1.9-.7-1.9-.1 0 .5.8 1.2 1.8 1.4 1.5.4 1.5.5-.2.6-1.2.1-1.6.6-1.3 1.6.4.8.1 1.7-.5 2.1-.7.4-.6.9.3 1.5 1.1.7.9.9-.6.9-1.7 0-1.7.2-.5 1 .8.5 1 1 .4 1-.5 0-1.6-.6-2.3-1.2-1.1-1.1-1.3-1-.8.4.4 1.1-.1 1.8-1.6 2.2-3.3.9-3.7.7-3.7-.9 0-.8.7-1.5 1.5-1.5s1.5-.5 1.5-1.1c0-.5-.4-.8-.9-.4-1.6 1-2.2-1.4-1-3.7 1.2-2.3 1.2-2.3-1-.4-1.6 1.4-1.8 2.2-1 3.2s.7 1.7-.4 2.8c-.8.8-1.7 1.2-2.1.9-.3-.3-1.2 0-2.1.7-1.2 1-1.8 1-3 0-1.8-1.5-1.9-2.7-.2-2.7 2.2 0 6.7-3.5 6.7-5.2 0-.9-.5-2.3-1.1-3.1-.9-1.3-1-1.3-.6.1.7 2.1-2.9 5.1-5.9 5.1-2 0-2.3.5-2 2.9.2 1.6-.1 2.9-.6 2.9s-.6.5-.3 1.1c.4.6 1.3.8 2.1.5.8-.3 1.4.1 1.4.8 0 .8-.9 1.6-1.9 1.9-1.5.3-1.8.1-1.4-1.1.4-.9.2-1.3-.4-.9-.6.4-1.4-.3-1.8-1.6-.6-1.8-.8-1.9-1.2-.5-.4 1.6-.5 1.6-2.1 0-1.1-1.1-1.6-3-1.5-5.5.1-2.1-.2-3.5-.8-3.2-.5.4-.9 2-.9 3.6 0 3.1-3 5.2-5.9 4.1-1-.4-1.3 0-.9 1.6.4 1.4.2 2-.4 1.6-.5-.4-.8-1.9-.6-3.5.3-1.8 0-2.8-.6-2.6-.6.2-1.2 1.6-1.4 3.1-.3 1.9-.8 2.6-1.8 2.2-.8-.3-1.7 0-2 .8-.6 1.5-3.4 1.7-3.4.3 0-.6-.9-.2-2.1.9-1.9 1.7-2.1 1.8-3 .1-1.4-2.4-3.2-2.1-2.4.4.5 1.5.4 1.9-.4 1.5-.6-.4-1.4-.1-1.7.7-.5 1.5-2.7 1.7-4 .4-1.3-1.3-2.6-.7-2 .8.3.8.1 1.5-.4 1.5-.6 0-1-.7-1-1.6 0-1.4-.3-1.4-1.5-.4-1 .9-1.5.9-1.5.1 0-.6-.5-1.1-1.1-1.1-.5 0-.7.4-.4 1 .3.5-.3 1-1.5 1s-1.8.4-1.5 1c.8 1.3-1.8.8-2.7-.5-.5-.7-.8-.7-.8 0 0 .5-2.1.9-4.7.9-2.7-.1-6.3.3-8.1.9-2.4.8-3.8.8-5.2 0-1.5-1-1.9-.9-2.5.5-.4 1-.9 1.3-1.3.6-.7-1.1-1.2-1.1-5.9 0-1.3.3-2.4-.1-2.7-1-.8-2-2.6-1.7-2 .4.5 1.4.4 1.5-.5.2-.5-.8-1.8-1.6-2.8-1.7-1-.1-3-.4-4.5-.6-1.6-.2-2.8 0-2.8.4 0 1.2-6.2-.1-8.2-1.8-1.1-1-1.8-1.1-2.3-.3-.5.8-1.2.7-2.3-.3-2.6-2.1-4.6-3.2-3.8-1.9.3.6.2 1.3-.4 1.7-.5.3-1 .2-1-.4 0-.6-2.3-1.3-5-1.7-2.8-.4-5.3-1-5.6-1.5-.2-.4-1.1-.6-1.9-.2-.9.3-2.2 0-2.9-.6-1-.8-1.6-.9-2.1-.1-1 1.6-8.1 1.2-9.5-.5-.7-.8-1.9-1.5-2.7-1.5-1.1 0-1.3-.7-.7-3.2.4-1.8.6-5 .6-7-.1-2.1.3-3.8.8-3.8.6 0 1-.9 1-2 0-1.2 1-2.5 2.5-3.2 1.5-.7 2.4-1.7 2.1-2.5-.3-.8.1-1.6.9-1.9.8-.4 1.2-1 .9-1.5-.3-.5-.2-.8.3-.7.4.1 1.8-.3 3-1 1.4-.8 2.3-.8 2.5-.1.2.6 1.6 1.2 3 1.3 1.5.2 2.5-.1 2.2-.5-.7-1.2 2.2-2.3 3.7-1.4.8.6.7 1-.2 1.7-.9.6-.5.7 1.2.2 1.5-.3 3-.1 3.3.5.4.6 1.5 1.1 2.4 1.1 1.4 0 1.5-.2.2-1-2-1.2-.9-2.1 1.8-1.3 1.2.3 2.2 1.2 2.2 1.9 0 1.7 1.7 1.9 2.2.3.2-.6 1.8-1.3 3.6-1.5 2-.2 3.1 0 2.7.6-.3.6-.1 1 .5 1s.8.4.5 1c-.9 1.4 1.8 1.2 3.4-.3 1.1-1 1.2-.9.6.2s-.3 1.3 1.3.9c1.2-.4 2.5-.2 2.8.4.3.5 1.4.8 2.4.5 1.1-.3 2.1.1 2.4.9.6 1.5 2.7 1.5 3.8 0 .4-.6 1.3-.4 2.2.3 1.3 1.1 1.9 1.1 3.1.1 1-.9 1.5-.9 1.5-.1 0 .6.7 1.1 1.6 1.1.8 0 1.2-.5.9-1-.4-.7.2-.9 1.9-.4 1.5.3 2.6.2 2.6-.4 0-.5.6-1.2 1.4-1.5 1-.4 1.2 0 .9 1.4-.6 2.1 1.2 2.7 2 .6.4-.9.8-.8 1.7.3 1 1.2 1.1 1.2.5-.5-.4-1.1-.8-2.5-.8-3.2 0-.6-.7-.9-1.5-.5-.9.3-1.3.1-.9-.5.8-1.3-3-2.4-6.1-1.8-1.2.2-2.4 0-2.6-.4-.3-.4-2.4-.8-4.8-1-5.5-.3-6.3-1.1-1.2-1.1 2.2 0 10.7-1.1 18.9-2.4 8.3-1.3 20.4-3.2 27-4.2 6.6-.9 12.5-2 13-2.3.7-.4.8-2.4.2-6-.7-4.1-1.4-5.5-2.9-5.9-1.9-.5-2-1-1.4-9.1 1-13.8 1-33.8 0-32.9-.4.5-1.7 7.8-2.9 16.8-.2 1.4-.6 4.4-1 6.7-.3 2.3-.7 7.4-.9 11.2-.4 10.1-1.2 10.7-14.1 11.6-12.6.9-18.3-.3-25-5.1-4-2.8-5.8-3.4-9.9-3.4-5 0-5.1 0-12.5 8-4.1 4.4-8 8-8.7 8-2.6 0-2.5-2.2.2-5.1 2.3-2.4 2.8-4 3.4-10.1.5-6 1.3-8.4 4.3-13.3 4.3-6.9 4.7-11.5 1.8-17.3-1.1-2.1-3.1-4.3-4.6-5-3.3-1.5-3.3-1.5-3.8.5-.4 1.7-.5 1.7-.6 0-.2-2.9-1.7-2-8.3 4.9-8.7 9.2-17.4 16.3-20.6 16.9-1.5.3-3.9 1.2-5.3 1.9-2.2 1.1-2.9 1.1-4.5-.1-2.3-1.8-7.6-4.2-8.8-4-.5.1-1.3-.9-1.7-2.2-1-2.6.9-14.1 2.4-14.1.5 0 .8-1 .7-2.3-.4-4 0-4.9 1.5-4.3.8.3 1.5.1 1.5-.4 0-1.5 3-1.2 3 .2.1 2.2 3-2.4 3-4.6 0-2.2 2.9-10.8 3-9.1 0 .5.9 0 1.9-1.3 1.1-1.2 2.8-2.1 3.8-2 3.7.3 4.9-.3 6.6-3.2 1-1.7 3.1-3.7 4.6-4.4 2.7-1.5 2.8-1.6 1.8-6.8-1.5-8.2-1.6-8.4-3.1-6.3-.8 1.1-2 1.6-3 1.2-.9-.4-1.6-.3-1.6.2s1 1.1 2.1 1.4c1.7.5 2 1.1 1.7 3.1-.3 1.5-.1 2.3.4 2 .6-.4.8.2.6 1.2-.1.9-.6 1.7-1 1.6-.5-.1-1.9-.2-3.3-.2-1.5 0-2.5-.6-2.5-1.4 0-.9-.7-1.2-2-.9-1.1.3-3.1.2-4.5-.1-2.3-.6-2.5-1-1.9-4.1.3-1.9.3-4.7 0-6.1-.6-2.4-.9-2.5-2.4-1.1-.9.8-2.8 1.7-4.2 2-4.1 1-9 4.5-9 6.4 0 1 .7 3.1 1.5 4.7 1.5 2.8 2.1 6.5.9 5.3-.8-.8-3.1 2.1-6.8 8.7-2.2 3.8-2.6 5.3-1.8 6.6 1.3 2.2-.9 9.4-3.1 9.8-.8.2-2.3-1-3.3-2.7-.9-1.6-2.8-3.5-4.2-4.2-3.5-1.9-11.9-11.4-14.8-16.8-1.4-2.5-4.5-8-6.9-12.1-2.5-4.1-7-12.4-10-18.5-3.1-6-6-11.4-6.5-11.9-.4-.4-2.2 0-4 1-2.9 1.7-3.3 1.8-4.3.3-.7-.9-1.8-1.4-2.4-1.2zm22.3 41.9c4.4 8 8.9 16.1 10.2 18.1 1.3 1.9 4.7 10.8 7.6 19.7 2.9 8.8 6.3 18.5 7.5 21.5l2.2 5.4-2.8-1.8c-3.8-2.5-11.1-8.6-19.7-16.6-6.9-6.5-7.2-6.7-13.6-7.2-3.6-.4-8-.9-9.7-1.3-3.2-.6-3.3-.5-3.3 2.5 0 2-.5 3.1-1.2 3-2.9-.3-3.6.3-5.2 4.5-2 5.1-5 6.3-10.5 4-1.8-.8-4.9-1.4-6.8-1.4-3.1 0-3.4.2-3.1 2.7.3 2.3 1 2.9 5.3 4 2.8.7 7.2 1.3 9.9 1.3 4.2 0 4.7.2 4.1 1.7-.4 1-1 2.8-1.3 4.1-.5 2.3-3.5 4.6-4.6 3.5-.3-.3-2.5-.6-4.7-.5-2.3.1-4.8-.3-5.5-.9-.8-.6-1.4-.9-1.4-.5 0 .3-.9-.3-2-1.4-1.1-1.1-3.1-2-4.4-2-1.9 0-2.4-.6-3-3.8-1.2-7.4-.8-8.8 4.1-13.9 2.6-2.6 6.6-7.3 8.8-10.5 2.2-3.1 7.6-10.3 12-16.1 4.4-5.8 9.7-13.4 11.7-16.9 4.5-7.6 10.1-15.7 10.9-15.8.4 0 4.2 6.6 8.5 14.6zm70.9-3.7c.3.6-.4.9-1.5.8-1.1-.1-2-.5-2-.9 0-1.1 2.8-1 3.5.1zM191 440.4c0 .2-.8 1-1.7 1.7-1.6 1.3-1.7 1.2-.4-.4 1.3-1.6 2.1-2.1 2.1-1.3zm-84.3 56.2c5.2.5 7.3 1.7 5.3 2.9-.5.3-1 1.5-1 2.6s-.6 2.2-1.4 2.5c-.9.3-1.2 1.2-.9 2.1.4 1.1.2 1.4-.5.9-.7-.4-1.2-1.6-1.2-2.7 0-2.2-2.3-2.5-4.3-.5-2.9 3-9.7-1.3-10.3-6.4-.4-3-1.1-3 14.3-1.4zm-3 19c2.1 1.4 3.9 2.6 4 2.8.2.1-.5 2-1.6 4.1-1.8 3.7-1.8 3.7-3.3 1.6-.9-1.3-2.1-1.9-3-1.6-1.7.7-5.8-4.2-5.8-6.8 0-3.4 4.8-3.4 9.7-.1zm268.7-.1c-.4.8-1.1 1.2-1.6.9-.6-.4-.5-1 .3-1.5 1.9-1.2 1.9-1.1 1.3.6zM119 524.6c0 .8-.4 1.2-1 .9-.5-.3-1-1-1-1.6 0-.5.5-.9 1-.9.6 0 1 .7 1 1.6zm251 9.8c0 .3-.4.8-1 1.1-.5.3-1 .1-1-.4 0-.6.5-1.1 1-1.1.6 0 1 .2 1 .4zm-4 12.6c0 .5-.5 1-1.1 1-.5 0-.7-.5-.4-1 .3-.6.8-1 1.1-1 .2 0 .4.4.4 1z"/><path d="M211 406c0 .5.7 1 1.5 1s1.5-.5 1.5-1c0-.6-.7-1-1.5-1s-1.5.4-1.5 1zM257.4 406c-4.3 1.7-3.3 10.4 1.4 11.3 2.7.5 6.2-3.3 6.2-6.8 0-1.8-3.8-5.8-5.2-5.4-.2 0-1.3.4-2.4.9zm4.6 5.6c0 .8-.4 1.4-1 1.4-.5 0-1-.9-1-2.1 0-1.3-.4-1.8-1.2-1.3-.7.4-.8.3-.4-.5 1-1.5 3.6.4 3.6 2.5zM228.7 411.7c2 5 2.2 5.1 2.1 1.2-.1-3.1-1.2-4.8-3-4.9-.4 0 0 1.7.9 3.7zM256 419.9c0 1.2 0 2.4-.1 2.8 0 .4.4.9 1 1.1 1.4.5 1.5-4.5.1-5.3-.5-.3-1 .3-1 1.4zM259 420.2c0 .7.4 1.9.9 2.6.6 1 1 1 2-.2.7-.8 1-2 .6-2.6-.9-1.4-3.5-1.3-3.5.2zM227.1 425c-.1.8-.5 2.6-.7 4-.3 1.8-.2 2.2.6 1.4.7-.7 1-2.4.7-4-.2-1.6-.5-2.2-.6-1.4zM255.4 426.6c.3.9.6 2.1.6 2.7 0 .8.3.8 1.2-.1.9-.9 1.5-.9 2.5 0 1 .8 1.7.8 2.5 0 1.9-1.9.1-3.9-3.7-4-3-.1-3.6.2-3.1 1.4zM212 431.5c-.2 2.2-.4 4.9-.5 6-.4 5.9-1.8 14.2-2.6 15.7-.6 1.2-.6 1.8.1 1.8.5 0 2.4-2.1 4-4.8 3.3-5.1 3.9-11.7 1.4-15.8-.6-1.1-1.4-3.1-1.7-4.5-.3-1.7-.5-1.3-.7 1.6zM226.3 432c-1.3.5-2.3 1.4-2.3 2 0 1.8 3.5 1.1 4.8-1 1.3-2.2.9-2.3-2.5-1zM335.8 500.6c.5.9.7 2.6.5 3.8-.4 1.7-.3 1.8.6.6 1-1.3 1.1-1.3 1.1 0 0 1.2.2 1.3.9.1.5-.7 1.3-1.1 1.9-.7 2.4 1.4 1.7-2-.7-3.6-3.4-2.3-5.5-2.4-4.3-.2zM277 508.8c0 .7.4 1.2 1 1.2.5 0 .7.8.3 1.7-.5 1.5-.3 1.6.8.5 1.1-1 1-1.5-.4-2.9-1.1-1.1-1.7-1.3-1.7-.5zM362.6 518.7c-.6 1.4-.5 1.5.5.6.7-.7 1-1.5.7-1.8-.3-.3-.9.2-1.2 1.2zM352 522.4c0 .2.8 1 1.8 1.7 1.5 1.3 1.6 1.2.3-.4s-2.1-2.1-2.1-1.3zM329 527.5c-.6.8-.9 1.9-.5 2.6.4.6.1 1.5-.6 2-1.1.7-.9.9.6.9 1.6 0 2-.7 2-3.5 0-4.1.1-3.9-1.5-2zM301.5 539c-.2.3.5.7 1.6.7 1 .1 1.9-.2 1.9-.6 0-.9-2.9-1-3.5-.1zM278 542c0 .5.7 1 1.6 1 .8 0 1.2-.5.9-1-.3-.6-1-1-1.6-1-.5 0-.9.4-.9 1zM240 572c0 .5.5 1 1 1 .6 0 1-.5 1-1 0-.6-.4-1-1-1-.5 0-1 .4-1 1zM231.1 574.7c-.7.8-1.1 1.6-.8 1.9.6.7 3.7-.7 3.7-1.6 0-1.6-1.5-1.8-2.9-.3zM241 579c0 .5.5 1 1 1 .6 0 1-.5 1-1 0-.6-.4-1-1-1-.5 0-1 .4-1 1zM225 581c0 .5.5 1 1.1 1 .5 0 .7-.5.4-1-.3-.6-.8-1-1.1-1-.2 0-.4.4-.4 1zM262.5 581c-.3.5.1 1 .9 1 .9 0 1.6-.5 1.6-1 0-.6-.4-1-.9-1-.6 0-1.3.4-1.6 1zM289.5 581c-.3.5-.1 1 .4 1 .6 0 1.1-.5 1.1-1 0-.6-.2-1-.4-1-.3 0-.8.4-1.1 1zM231.5 582c-.3.6.1.7.9.4 1.8-.7 2.1-1.4.7-1.4-.6 0-1.3.4-1.6 1zM256 582.1c0 .5.5.7 1 .4.6-.3 1-.8 1-1.1 0-.2-.4-.4-1-.4-.5 0-1 .5-1 1.1zM208.5 583c-.3.5.1 1 .9 1s1.8-.5 2.1-1c.3-.6-.1-1-.9-1s-1.8.4-2.1 1zM223 586c0 1.3 1.1 1.3 3 0 1.2-.8 1.1-1-.7-1-1.3 0-2.3.4-2.3 1zM317.6 588.9c-.4.5-.2 1.2.3 1.5.5.4 1.2.2 1.5-.3.4-.5.2-1.2-.3-1.5-.5-.4-1.2-.2-1.5.3zM201.8 594.7c.7.3 1.6.2 1.9-.1.4-.3-.2-.6-1.3-.5-1.1 0-1.4.3-.6.6zM184.8 595.7c.6.2 1.8.2 2.5 0 .6-.3.1-.5-1.3-.5-1.4 0-1.9.2-1.2.5zM5.5 597c.3.5.8 1 1.1 1 .2 0 .4-.5.4-1 0-.6-.5-1-1.1-1-.5 0-.7.4-.4 1zM347.5 600c-.3.5.1 1 1 1s1.3-.5 1-1c-.3-.6-.8-1-1-1-.2 0-.7.4-1 1zM15.5 601c.3.5 1.1 1 1.6 1 .6 0 .7-.5.4-1-.3-.6-1.1-1-1.6-1-.6 0-.7.4-.4 1zM165 601c0 .5.5 1 1 1 .6 0 1-.5 1-1 0-.6-.4-1-1-1-.5 0-1 .4-1 1zM377.5 605c-.3.5-.1 1 .4 1 .6 0 1.1-.5 1.1-1 0-.6-.2-1-.4-1-.3 0-.8.4-1.1 1zM183 606c0 .5.5 1 1.1 1 .5 0 .7-.5.4-1-.3-.6-.8-1-1.1-1-.2 0-.4.4-.4 1zM164.5 607c.4.6 1.1.8 1.6.5 1.4-.9 1.1-1.5-.7-1.5-.8 0-1.2.5-.9 1zM157 610c0 .5.7.7 1.5.4.8-.4 1.5-.8 1.5-1 0-.2-.7-.4-1.5-.4s-1.5.4-1.5 1z"/></svg>