<?xml version="1.0" standalone="no"?>
<!DOCTYPE svg PUBLIC "-//W3C//DTD SVG 20010904//EN"
 "http://www.w3.org/TR/2001/REC-SVG-20010904/DTD/svg10.dtd">
<svg version="1.0" xmlns="http://www.w3.org/2000/svg"
 width="2560.000000pt" height="1383.000000pt" viewBox="0 0 2560.000000 1383.000000"
 preserveAspectRatio="xMidYMid meet">

<g transform="translate(0.000000,1383.000000) scale(0.100000,-0.100000)"
fill="#000000" stroke="none">
<path d="M16373 13168 c6 -24 80 -390 90 -445 5 -23 3 -31 -6 -28 -30 11 -690
99 -1042 139 -1359 155 -2882 186 -4285 86 -2254 -160 -4388 -651 -6115 -1405
-1649 -720 -2881 -1651 -3559 -2687 -512 -784 -701 -1603 -560 -2438 51 -306
162 -652 299 -933 29 -60 49 -105 45 -100 -263 301 -509 620 -721 939 -62 93
-115 173 -119 177 -8 9 11 -124 35 -243 278 -1392 1404 -2702 3215 -3737 2010
-1149 4733 -1884 7660 -2067 582 -37 727 -41 1500 -41 772 0 928 5 1505 41
3217 201 6182 1074 8219 2418 1491 985 2401 2156 2645 3406 49 251 56 330 56
665 0 349 -9 455 -65 723 -66 321 -165 602 -330 937 -113 230 -225 420 -362
615 -559 793 -1415 1531 -2503 2155 -1390 797 -3129 1400 -5061 1754 -195 36
-522 91 -540 91 -3 0 -4 -10 -1 -22z m-3203 -1354 c53 -25 112 -82 136 -133
40 -80 34 -125 -114 -881 l-138 -705 680 -6 c699 -6 806 -12 1061 -55 388 -65
695 -181 915 -344 147 -109 309 -306 378 -461 62 -138 121 -357 123 -456 0
-31 2 -34 9 -18 5 11 57 268 115 570 58 303 113 570 122 594 20 55 74 115 127
144 l41 22 1590 0 c1474 0 1600 -1 1730 -18 506 -65 897 -205 1216 -433 106
-76 294 -256 375 -359 345 -442 474 -1021 384 -1719 -107 -835 -449 -1501
-1045 -2039 -451 -407 -916 -627 -1538 -727 -305 -49 -382 -53 -1164 -57 -409
-3 -743 -6 -743 -9 0 -36 -305 -1557 -318 -1587 -11 -23 -39 -61 -65 -84 -82
-75 -55 -73 -897 -73 -859 0 -819 -4 -906 84 -54 53 -84 123 -84 190 0 17 65
362 144 766 79 404 142 736 141 738 -1 1 -18 -5 -38 -13 -31 -13 -144 -15
-825 -15 l-788 0 -52 26 c-90 45 -152 143 -152 240 0 18 131 704 290 1526 160
821 296 1541 302 1600 13 116 2 234 -24 265 -18 22 -83 50 -164 69 -59 15
-151 18 -660 21 l-592 4 -5 -23 c-3 -13 -159 -813 -346 -1778 -204 -1050 -348
-1771 -360 -1795 -28 -61 -66 -101 -123 -129 l-52 -26 -781 0 -781 0 -52 26
c-81 40 -138 122 -149 212 -4 35 24 195 111 646 64 329 115 600 113 603 -3 2
-19 -20 -38 -49 -53 -85 -166 -236 -245 -328 -301 -351 -616 -602 -979 -780
-319 -157 -603 -238 -1015 -289 -286 -36 -428 -41 -1102 -41 -617 0 -657 -1
-662 -17 -3 -10 -71 -358 -151 -773 -85 -434 -155 -775 -167 -803 -12 -27 -40
-65 -66 -88 -82 -72 -55 -70 -918 -67 l-769 3 -54 30 c-87 48 -139 134 -140
231 -1 56 1269 6614 1294 6679 20 54 79 113 142 142 l51 24 1584 -4 c1444 -2
1595 -4 1718 -20 373 -49 657 -131 930 -267 512 -257 862 -692 996 -1239 16
-62 29 -110 31 -105 1 5 140 718 308 1584 168 866 310 1590 315 1609 22 80
100 153 188 177 37 10 214 13 802 11 746 -2 756 -2 800 -23z"/>
<path d="M11637 11538 c-11 -44 -1267 -6516 -1267 -6527 0 -8 186 -10 707 -9
l707 3 57 290 c31 160 195 1004 365 1878 l308 1587 619 0 c659 0 801 -7 953
-45 219 -56 318 -142 359 -317 19 -83 19 -277 0 -398 -9 -52 -142 -743 -295
-1534 -154 -792 -280 -1446 -280 -1453 0 -11 134 -13 718 -13 l717 0 303 1563
c167 859 311 1607 319 1662 11 67 16 170 17 310 0 233 -15 333 -74 498 -140
386 -502 624 -1105 726 -285 49 -384 53 -1238 58 l-809 5 6 21 c2 12 77 396
166 852 88 457 163 838 166 848 5 16 -33 17 -704 17 l-710 0 -5 -22z"/>
<path d="M5556 9803 c-3 -10 -280 -1433 -616 -3163 -336 -1730 -621 -3198
-634 -3263 l-23 -117 715 2 715 3 168 865 c93 476 169 866 169 868 0 1 314 2
698 2 882 0 1119 12 1472 76 527 96 934 297 1327 656 516 471 820 1043 932
1753 86 546 34 1002 -155 1370 -262 509 -762 823 -1469 924 -258 37 -431 41
-1882 41 -1336 0 -1412 -1 -1417 -17z m2643 -1046 c574 -91 792 -296 827 -777
11 -168 -23 -451 -86 -701 -86 -341 -217 -600 -399 -791 -104 -110 -189 -174
-311 -237 -210 -107 -426 -165 -734 -196 -120 -13 -262 -15 -697 -13 l-546 3
266 1368 266 1368 655 -4 c544 -3 673 -7 759 -20z"/>
<path d="M7010 8504 c0 -4 -94 -494 -210 -1089 -115 -595 -210 -1087 -210
-1093 0 -15 608 -17 796 -2 691 55 1020 271 1218 803 84 223 135 488 143 727
12 377 -77 510 -397 594 -189 50 -286 58 -832 63 -280 3 -508 2 -508 -3z"/>
<path d="M16706 9793 c-8 -36 -1252 -6446 -1261 -6495 l-7 -38 714 0 714 0
169 870 169 870 695 0 c700 0 952 8 1201 36 673 77 1139 278 1590 686 623 563
957 1308 977 2178 4 179 2 254 -12 360 -49 390 -192 701 -439 958 -314 325
-730 507 -1327 579 -129 15 -303 17 -1661 20 l-1516 4 -6 -28z m2639 -1036
c328 -53 499 -121 630 -252 153 -153 216 -363 202 -679 -15 -335 -110 -722
-242 -988 -228 -457 -553 -674 -1152 -769 -129 -21 -179 -23 -755 -26 -460 -3
-618 -2 -618 7 0 14 519 2688 526 2713 6 18 34 18 657 14 536 -3 670 -7 752
-20z"/>
<path d="M18165 8498 c-2 -7 -97 -490 -210 -1073 -113 -583 -208 -1073 -211
-1089 l-6 -28 418 5 c484 6 603 18 841 82 339 92 548 266 699 582 122 254 207
629 206 918 0 333 -78 450 -357 538 -192 60 -401 77 -968 77 -317 0 -409 -3
-412 -12z"/>
</g>
</svg>
