<?xml version="1.0" standalone="no"?>
<!DOCTYPE svg PUBLIC "-//W3C//DTD SVG 20010904//EN"
 "http://www.w3.org/TR/2001/REC-SVG-20010904/DTD/svg10.dtd">
<svg version="1.0" xmlns="http://www.w3.org/2000/svg"
 width="800.000000pt" height="600.000000pt" viewBox="0 0 800.000000 600.000000"
 preserveAspectRatio="xMidYMid meet">

<g transform="translate(0.000000,600.000000) scale(0.100000,-0.100000)"
fill="#000000" stroke="none">
<path d="M0 3000 l0 -3000 4000 0 4000 0 0 3000 0 3000 -4000 0 -4000 0 0
-3000z m5225 2490 c250 -35 417 -255 471 -621 31 -216 7 -591 -55 -852 -10
-42 -16 -79 -12 -81 3 -2 67 -24 141 -49 500 -167 855 -410 979 -671 114 -237
34 -483 -229 -712 -174 -150 -485 -314 -780 -409 -47 -15 -89 -31 -93 -35 -5
-4 3 -63 17 -132 107 -517 63 -969 -118 -1222 -78 -110 -189 -176 -329 -198
-288 -44 -741 168 -1130 533 -89 82 -66 84 -181 -19 -236 -214 -564 -412 -789
-476 -312 -90 -549 -29 -688 176 -106 156 -152 351 -152 643 0 191 15 327 59
543 14 68 24 128 22 133 -2 6 -55 27 -118 48 -282 93 -524 217 -716 367 -267
208 -383 459 -316 681 91 296 459 570 1010 753 78 26 144 49 146 51 3 2 -4 42
-15 89 -72 310 -92 674 -49 908 53 295 201 487 411 537 171 40 369 3 614 -115
189 -91 353 -204 577 -398 l97 -83 103 92 c324 291 661 478 934 518 82 12 109
12 189 1z"/>
<path d="M5014 5246 c-175 -40 -411 -169 -627 -343 -113 -92 -217 -185 -217
-196 0 -5 25 -37 56 -70 80 -87 215 -253 322 -398 l93 -126 117 -12 c131 -14
443 -64 540 -86 105 -25 96 -33 126 123 39 208 48 301 48 487 0 201 -23 338
-76 450 -63 134 -120 176 -246 181 -41 2 -102 -3 -136 -10z"/>
<path d="M2725 5231 c-95 -44 -160 -160 -197 -351 -18 -94 -15 -410 5 -545 20
-130 56 -307 66 -324 6 -9 45 -5 162 18 155 30 383 64 516 77 l72 6 114 152
c63 83 171 216 240 296 l126 145 -72 68 c-219 207 -513 389 -731 451 -111 33
-240 35 -301 7z"/>
<path d="M3954 4488 c-53 -57 -136 -153 -219 -258 l-67 -85 322 -3 c178 -1
325 0 328 2 8 9 -301 386 -317 386 -4 0 -25 -19 -47 -42z"/>
<path d="M3701 3899 c-118 -5 -218 -12 -222 -16 -4 -4 -49 -73 -100 -153 -117
-183 -250 -415 -340 -593 l-70 -138 94 -182 c100 -195 213 -389 339 -584 l79
-121 77 -8 c100 -11 807 -8 892 3 l65 8 92 145 c115 180 271 455 354 621 l62
126 -88 164 c-113 212 -222 399 -334 574 l-89 140 -84 6 c-164 12 -517 16
-727 8z m441 -419 c211 -65 348 -253 349 -477 0 -95 -11 -145 -53 -227 -94
-186 -309 -298 -514 -266 -152 24 -298 126 -367 258 -46 88 -58 136 -58 235 0
222 137 410 349 478 80 25 211 25 294 -1z"/>
<path d="M2933 3820 c-211 -36 -263 -49 -263 -65 0 -18 62 -196 122 -349 l51
-129 31 57 c71 132 207 367 250 434 25 40 46 74 46 77 0 11 -82 2 -237 -25z"/>
<path d="M4820 3846 c0 -2 33 -57 74 -123 40 -65 114 -192 164 -282 83 -150
92 -162 101 -140 5 13 27 69 49 125 45 111 124 336 120 339 -5 5 -213 45 -338
65 -122 20 -170 24 -170 16z"/>
<path d="M2280 3661 c-476 -159 -803 -395 -849 -612 -32 -149 115 -344 384
-509 166 -102 592 -278 614 -254 5 5 25 61 46 124 43 132 128 350 191 493 l43
97 -36 78 c-52 114 -145 350 -193 492 -24 69 -46 128 -49 132 -4 4 -72 -14
-151 -41z"/>
<path d="M5557 3693 c-2 -5 -15 -39 -27 -78 -38 -115 -117 -319 -180 -466 -33
-76 -60 -142 -60 -146 0 -5 32 -80 71 -168 73 -166 199 -494 199 -519 0 -28
18 -26 136 15 421 144 744 359 837 557 59 127 32 224 -100 363 -152 158 -388
292 -717 405 -131 45 -152 50 -159 37z"/>
<path d="M5071 2582 c-41 -75 -114 -204 -163 -285 -50 -82 -88 -151 -85 -153
9 -10 481 70 505 85 10 6 4 32 -23 107 -49 138 -149 384 -155 384 -3 0 -38
-62 -79 -138z"/>
<path d="M2831 2688 c-5 -13 -23 -59 -41 -103 -68 -167 -129 -360 -117 -366
28 -14 419 -79 479 -79 26 0 25 3 -66 153 -51 83 -125 212 -165 285 -40 72
-75 132 -77 132 -3 0 -8 -10 -13 -22z"/>
<path d="M5325 1984 c-109 -24 -408 -72 -525 -84 -63 -6 -125 -13 -137 -16
-13 -2 -51 -45 -99 -111 -101 -140 -207 -274 -310 -394 l-83 -96 42 -40 c129
-124 350 -288 497 -370 194 -107 390 -153 515 -122 179 45 286 372 255 777
-16 210 -63 473 -84 471 -6 -1 -38 -7 -71 -15z"/>
<path d="M2597 1983 c-8 -13 -54 -239 -68 -338 -8 -51 -14 -173 -14 -280 0
-209 14 -302 63 -424 35 -88 117 -172 184 -189 228 -57 639 131 997 456 l81
73 -98 112 c-102 116 -252 303 -336 419 -49 66 -50 67 -105 73 -272 29 -610
78 -683 101 -9 3 -19 1 -21 -3z"/>
<path d="M3670 1856 c0 -19 315 -389 334 -393 15 -3 326 372 326 393 0 2 -148
4 -330 4 -181 0 -330 -2 -330 -4z"/>
</g>
</svg>
